<?xml version="1.0" encoding="utf-8"?>
<!-- Generator: Adobe Illustrator 24.3.0, SVG Export Plug-In . SVG Version: 6.00 Build 0)  -->
<svg version="1.1" id="Layer_1" xmlns="http://www.w3.org/2000/svg" xmlns:xlink="http://www.w3.org/1999/xlink" x="0px" y="0px"
	 viewBox="0 0 128 128" style="enable-background:new 0 0 128 128;" xml:space="preserve">
<style type="text/css">
	.st0{fill:#389FBA;}
	.st1{fill:#435B68;}
	.st2{fill:#FEFEFE;}
</style>
<g>
	<path class="st0" d="M23.1,91C17.2,89.8,7.9,73.9,6.9,63.9C5,44,17.4,29.3,32,23.9c13.7-5.1,29.3-0.8,37,6.9
		c-17.3-7.4-33.5-6.7-46.4,8C7.6,55.9,9.4,73.7,23.1,91z"/>
	<path class="st1" d="M67.1,98.5c-11.7,4.2-25.3,2.5-36.9-8.5c-11.3-10.8-13.1-25.7-7.6-39.8c3.9-9.9,16.4-20.2,24-20.2
		c-14.9,8.6-23,21.4-19.6,38.6C31.2,90,46,99,67.1,98.5z"/>
	<path class="st0" d="M93.1,81.4c-1.7,6-17.6,12.6-28.8,12c-15.1-0.8-27.1-11.8-29.8-20.1c7.1,8.8,16.3,14.2,27.6,15.8
		C73.3,90.7,83.5,87.9,93.1,81.4z"/>
	<path class="st0" d="M61.1,65.9c1.6-3.1,3.3-6.3,4.9-9.4c0.6-1.1,3.6-1.9,4.5-1.1c0.4,0.3,0.2,0.8,0.2,1.2
		c-0.8,4.4-1.6,8.7-2.3,13.1c-0.3,1.8-1.5,1.5-2.6,1.3c-1.3-0.2-0.7-1.2-0.6-1.9c0.4-2.3,0.8-4.6,1.3-7.2c-0.9,0.6-1.1,1.3-1.4,1.9
		c-1.1,2-2.2,4.1-3.2,6.1c-0.4,0.9-1.1,1.2-2.1,1.1c-0.9-0.1-0.9-0.8-1.1-1.5c-0.5-2.8-1-5.5-1.6-8.6c-0.7,1.4-0.6,2.7-0.8,4
		c-0.3,1.6-0.5,3.2-0.7,4.8c-0.2,1.5-1.3,1.4-2.4,1.3c-1.2-0.1-1-1-0.9-1.8c0.7-4,1.4-8,2.1-12c0.3-1.8,2.4-2.8,4.1-1.9
		c0.7,0.4,0.7,1,0.8,1.6c0.5,3,1,6,1.5,8.9C60.9,65.9,61,65.9,61.1,65.9z"/>
	<path class="st0" d="M111.8,62.7c-0.7,1.3-0.6,2.5-0.7,3.7c-0.1,1.1-0.3,2.2-0.6,3.2c-0.3,1-1,1.4-2,1.4c-1.2-0.1-1.8-0.4-1.5-1.8
		c0.8-4.2,1.5-8.4,2.3-12.6c0.2-1.3,1-1.8,2.5-1.5c1.2,0.2,0.9,1.1,0.8,1.9c-0.1,1.3-0.2,2.5-0.1,3.9c0.5-0.7,0.9-1.5,1.4-2.2
		c1.5-2.4,3.6-3.7,6.5-3.6c2.6,0.1,4.2,1.4,4.8,3.9c0.8,3.5,0.4,6.7-1.9,9.6c-1.7,2.2-3.9,2.9-6.6,2.4c-2.3-0.4-3.5-2-4.1-4.2
		C112.3,65.5,112.5,64.1,111.8,62.7z M115.7,64.4c0,0.3,0,0.5,0,0.8c0,1.3,0.1,2.6,1.6,3c1.6,0.4,2.7-0.1,3.7-1.6
		c1.1-1.7,1.3-3.6,1.2-5.6c0-1.3-0.2-2.7-1.8-3.1c-1.3-0.4-2.8,0.3-3.7,1.7C116,61.1,115.7,62.8,115.7,64.4z M112.1,62.4
		c0.2-0.3,0.3-0.6,0-1C111.9,61.8,111.9,62.1,112.1,62.4z"/>
	<path class="st0" d="M99.9,55.1c1.4,0,2.8-0.1,4.1,0.5c3.4,1.7,3.9,5.6,0.7,7.8c-1.2,0.8-1.3,1.5-0.8,2.7c0.5,1.1,0.8,2.3,1.2,3.4
		c0.3,0.9,0.1,1.4-1,1.4c-1.6,0.1-2.3-0.5-2.8-2.1c-0.2-0.8-0.5-1.6-0.7-2.4c-0.3-1.1-1.1-1.3-2.1-1.3c-1,0-1.1,0.8-1.2,1.5
		c-0.2,1-0.3,2-0.5,2.9c-0.1,0.7-0.4,1.1-1.2,1.3c-1.8,0.3-2.3-0.2-2-2c0.7-3.9,1.4-7.7,2-11.6c0.4-2.3,0.3-2.3,2.6-2.3
		C99,55.1,99.5,55.1,99.9,55.1z M99.9,62.6c2.3,0,3.6-1.1,3.6-2.7c0-1.3-0.9-2-2.6-2c-1.8,0-2.4,1-2.4,3.4
		C98.4,62.4,98.9,62.8,99.9,62.6z"/>
	<path class="st0" d="M90.6,55.1c1.1,0,2.3,0,3.4,0c0.7,0,1.4,0.1,1.3,1.1c-0.1,0.9-0.2,1.7-1.4,1.7c-1.4,0-2.8,0-4.2,0
		c-1.5,0-2,0.6-2.1,2.4c-0.1,1.6,1,1.1,1.8,1.1c0.8,0.1,1.7,0.1,2.5,0c0.7,0,1.3,0,1.3,0.9c-0.1,0.8-0.1,1.8-1.3,1.8
		c-1.1,0-2.2,0-3.3,0c-1.7,0-2.2,0.7-2.1,3c0,1.4,1.1,1.1,1.9,1.2c1.1,0,2.2,0,3.3,0c0.6,0,1.3-0.2,1.3,0.8c0,0.8,0,1.9-1.2,1.9
		c-2.8,0.1-5.6,0-8.4,0c-0.8,0-0.9-0.6-0.8-1.2c0.8-4.4,1.5-8.8,2.3-13.3c0.2-1,0.9-1.5,1.9-1.4C88.2,55.1,89.4,55.1,90.6,55.1
		C90.6,55.1,90.6,55.1,90.6,55.1z"/>
	<path class="st0" d="M75.9,55.1c1,0.1,2,0.1,3,0.2c2.7,0.4,4.2,1.8,4.4,4.3c0.2,2.4-1.4,4.8-3.8,5.5c-1.3,0.4-2.6,0.4-3.9,0.3
		c-1.3-0.1-1.8,0.4-1.9,1.6c-0.1,0.8-0.3,1.6-0.4,2.5c-0.2,1.4-1,1.8-2.3,1.5c-1-0.2-1.2-0.6-1-1.6c0.8-3.9,1.4-7.8,2.1-11.7
		c0.4-2.5,0.4-2.5,2.9-2.5C75.2,55.1,75.6,55.1,75.9,55.1C75.9,55.1,75.9,55.1,75.9,55.1z M76.3,62.7c2.6,0,3.6-0.8,3.6-2.7
		c0-1.5-0.7-2.1-3-2.1c-1.6,0-2.4,1.3-2.4,3.8C74.5,63.2,75.7,62.5,76.3,62.7z"/>
	<path class="st1" d="M47.8,70.9c-1.2,0.1-1.9-0.2-1.6-1.6c0.8-4.1,1.4-8.3,2.2-12.5c0.3-1.5,1.4-2,2.7-1.4c0.5,0.2,0.7,0.4,0.6,1
		c-0.8,4.4-1.6,8.7-2.3,13.1C49.3,70.7,48.9,71.2,47.8,70.9z"/>
	<path class="st0" d="M70.9,75.8c-0.4,0.7-0.5,1.5,0.3,2.4c-1-0.3-1.7-0.7-2.4-0.2c-0.5,0.4-1.3,0.2-1.8-0.5
		c-0.5-0.7-0.1-1.4,0.4-1.8c0.5-0.5,0.9-0.8,0.7-1.6c-0.1-0.7,0.4-1.1,1.1-1.3c0.5-0.1,1-0.1,1.2,0.4c0.4,0.6,0,1.1-0.4,1.5
		c-0.3,0.3-0.8,0.5-0.4,1C70.1,76.5,70.4,75.4,70.9,75.8z M68.5,77.7c0.4-0.1,1-0.2,0.9-0.8c-0.1-0.5-0.3-1.1-0.9-1.1
		c-0.6,0-0.9,0.5-0.9,1.1C67.6,77.4,67.9,77.7,68.5,77.7z"/>
	<path class="st0" d="M46.2,78.3c-0.2-1.8,0.2-3.3,0.6-4.8c0.3-1.2,1.4-0.6,2.1-0.6c0.7,0,1.5,0,1.6,1c0.1,0.8-0.2,1.4-1,1.8
		c-0.1,0-0.2,0.1-0.3,0.1C47.9,76,46.3,76,46.2,78.3z M48.2,75.4c0.9,0,1.7-0.2,1.7-1.2c0-0.8-0.7-0.6-1.3-0.7
		c-1-0.2-1.2,0.5-1.4,1.3C47.1,75.6,47.8,75.4,48.2,75.4z"/>
	<path class="st0" d="M73.7,78.5c0.4-1.9,0.6-3.4,1-4.9c0.3-1.3,1.5-0.5,2.3-0.6c0.7-0.1,1.4,0.1,1.5,1c0.1,0.8-0.2,1.4-0.9,1.8
		c-0.2,0.1-0.5,0.3-0.7,0.3c-1.5-0.2-2.3,0.4-2.4,1.9C74.5,78.1,74.2,78.1,73.7,78.5z M76.3,73.6c-0.8-0.1-1,0.5-1.1,1.2
		c-0.1,0.9,0.6,0.6,1.1,0.7c0.7,0,1.4-0.1,1.5-1C77.8,73.5,77,73.6,76.3,73.6z"/>
	<path class="st0" d="M79,75.5c0.5-1.2,1.3-1.4,2.4-1.1c1.1,0.3,0.7,1.1,0.6,1.8c0,0.1,0,0.1,0,0.2c0.3,1.8-1,1.9-2.2,1.9
		c-0.5,0-1.1,0-1.2-0.7c-0.1-0.6,0.2-1,0.7-1.3c0.5-0.2,1-0.3,1.5-0.4c0.3-0.1,0.8-0.2,0.7-0.7c-0.2-0.5-0.6-0.4-1.1-0.3
		C79.8,75,79.7,75.7,79,75.5z M79.2,77.2c0,0.5,0.3,0.6,0.6,0.6c0.6,0,1.2-0.2,1.3-0.9c0.1-0.3-0.2-0.4-0.5-0.4
		C80.1,76.5,79.4,76.5,79.2,77.2z"/>
	<path class="st0" d="M59,75.5c0,1.6-1.1,2.8-2.4,2.7c-1,0-1.5-0.5-1.5-1.6c0-1.3,1.1-2.5,2.3-2.5C58.4,74.2,59,74.7,59,75.5z
		 M55.9,76.4c0,0.6,0.1,1.2,0.8,1.3c1.1,0.1,1.4-0.7,1.6-1.6c0.1-0.6,0-1.2-0.8-1.2C56.3,74.8,56,75.5,55.9,76.4z"/>
	<path class="st0" d="M54.7,75.4c0,1.8-1.1,2.9-2.4,2.9c-1,0-1.6-0.6-1.6-1.6c0-1.3,1.1-2.5,2.4-2.5C54.2,74.2,54.7,74.8,54.7,75.4z
		 M51.5,76.4c0,0.7,0.1,1.2,0.9,1.2c1.2,0,1.5-0.9,1.6-1.8c0.1-0.6-0.2-1.1-1-1.1C51.9,74.8,51.7,75.6,51.5,76.4z"/>
	<path class="st0" d="M90.9,76.9c0.5,0.4,0.8,0.7,1.1,0.8c0.5,0.2,1,0.2,1.2-0.3c0.3-0.7-0.4-0.7-0.8-0.8c-0.5-0.2-1.3-0.2-1.2-1
		c0.1-0.8,0.7-1.2,1.4-1.2c0.8-0.1,1.5,0,1.6,1c-0.4,0.4-0.5-0.1-0.8-0.2c-0.5-0.4-1.1-0.5-1.3,0.1c-0.3,0.7,0.5,0.6,0.8,0.8
		c0.5,0.2,1.2,0.3,1.1,1.1c-0.2,0.9-0.9,1.2-1.8,1.2C91.6,78.3,90.9,78.2,90.9,76.9z"/>
	<path class="st0" d="M61,77.1c0.7-0.1,0.8,0.7,1.4,0.6c0.4-0.1,0.9-0.1,1-0.6c0.1-0.5-0.4-0.6-0.7-0.7c-0.7-0.2-1.7-0.2-1.3-1.3
		c0.3-1,1.3-1.1,2.2-0.9c0.4,0.1,0.9,0.5,0.6,0.9c-0.3,0.5-0.6,0-0.8-0.2c-0.4-0.3-1-0.4-1.2,0.1c-0.3,0.7,0.4,0.6,0.8,0.8
		c0.6,0.2,1.2,0.5,1,1.3c-0.2,0.8-1,1-1.7,1.1C61.6,78.3,61,78.1,61,77.1z"/>
	<path class="st0" d="M88.3,78.3c-1,0-1.6-0.5-1.6-1.5c0-1.3,1.1-2.5,2.3-2.5c1,0,1.5,0.5,1.5,1.6C90.5,77.3,89.6,78.3,88.3,78.3z
		 M88.5,77.8c1-0.2,1.3-1,1.4-1.9c0-0.6-0.4-1-1-1c-1.1,0.1-1.5,0.8-1.5,1.8C87.4,77.4,87.8,77.7,88.5,77.8z"/>
	<path class="st0" d="M84.3,73.1c0.1,1,1,1.6-0.1,2.4c-0.4,0.3-0.5,1.3-0.3,2.1c0.1,0.2,0.9,0.4,0.1,0.7c-0.4,0.1-1,0-0.9-0.6
		C83.4,76.2,82.9,74.5,84.3,73.1z"/>
	<path class="st0" d="M59.4,78c0.2-1.7,0.6-3.4,1.1-5.1c0.2,0,0.4,0.1,0.6,0.1c-0.4,1.7-0.7,3.4-1.1,5.1C59.8,78.1,59.6,78,59.4,78z
		"/>
	<path class="st0" d="M86.1,74.5c-0.1,1.3,0,2.6-0.9,3.6C85.2,76.9,85.4,75.6,86.1,74.5z"/>
	<path class="st2" d="M112.1,62.4c-0.2-0.3-0.2-0.7,0-1C112.3,61.8,112.3,62.1,112.1,62.4z"/>
</g>
</svg>
