<?xml version="1.0" encoding="utf-8"?>
<!-- Generator: Adobe Illustrator 24.3.0, SVG Export Plug-In . SVG Version: 6.00 Build 0)  -->
<svg version="1.1" id="Layer_1" xmlns:ev="http://www.w3.org/2001/xml-events"
	 xmlns="http://www.w3.org/2000/svg" xmlns:xlink="http://www.w3.org/1999/xlink" x="0px" y="0px" viewBox="0 0 1090 1080"
	 style="enable-background:new 0 0 1090 1080;" xml:space="preserve">
<style type="text/css">
	.st0{fill:#FDF6F0;}
	.st1{fill:#ED744A;}
	.st2{fill:#FCCF7D;}
	.st3{fill:#2B2730;}
	.st4{fill:#AE5935;}
	.st5{fill:#C61E52;}
	.st6{fill:#104C89;}
	.st7{fill:#289DB9;}
	.st8{fill:#58A2A8;}
	.st9{font-family:'HelveticaNeue-Roman';}
	.st10{font-size:9.0011px;}
	.st11{fill:#299CB9;}
	.st12{fill:#405A64;}
	.st13{fill:#3F5965;}
	.st14{fill:#299DB7;}
	.st15{fill:#279DB9;}
	.st16{fill:#269DBA;}
	.st17{fill:#299DB8;}
</style>
<g>
	<path class="st0" d="M772.2,968.1c1.1,17.7,2.2,35.3,3.4,53c-147.8,0-295.6,0-443.5,0c-0.8-10.3,1-20.5,1.2-30.8
		c0.2-8,1.3-15.9,1.9-23.8c8.5,4.6,17.7,7.3,27,9.7c37.2,9.6,75.2,14.7,113.5,17.8c21,1.7,42.1,3,63.2,3.1
		c26.6,0.2,53.2,0.4,79.8-1.1c6-0.3,11.9-0.4,17.9-1c22.9-2.3,45.9-4.2,68.7-7.9C728.4,983.5,751.2,979.3,772.2,968.1z"/>
	<path class="st0" d="M318.3,859.8c-17.4-0.6-34.8-1.6-51.9-5.4c-21.7-4.9-41.2-13.7-55-32.1c-9.2-12.2-13.9-26.2-16.1-41.1
		c-5.2-36.3,0.1-71.8,7.9-107.1c14.6-66.3,39.6-128.6,73-187.7c18.9-33.6,46.9-55.6,82.8-68.4c28.3-10.1,56.9-19.5,84.4-31.8
		c11.2-5,22.2-10.3,32.5-17.1c2.2,17.9,13.4,28.7,28.9,35.9c13.2,6.1,27.3,8.3,41.6,8.5c22.5,0.3,43.9-3.9,63.1-16.5
		c8.4-5.5,15-12.6,17.8-22.6c1.4-5,1.4-10.2,1.8-15.3c17.9,11.2,37.8,18.3,57.3,25.9c28.2,11,57.1,20.1,84.4,33
		c20.1,9.5,38.8,21.1,53,38.7c13.7,16.9,22,36.5,28.4,57c6.3,20.1,10.5,40.6,13.4,61.4c3.2,23.3,4.5,46.6,3.6,70
		c-1.9,53.9-9,106.9-29.8,157.2c-8.1,19.5-18.4,37.5-36.3,50c-5.2,3.6-11.4,5-16.5,8.7c-10.4,1.9-20.9,2.2-31.4,2.9
		c-12.8,0.8-25.6-0.1-38.3-1.7c-10.5-1.3-21-3.1-31.5-4.7c-15.9-2.5-31.5-6.3-46.8-10.7c-29.7-8.5-58.6-19.2-86.4-32.6
		c-25.7-12.5-51.4-25.1-77-37.7c-1.7-0.9-4.1-1.2-4.5-3.5c-1.1-6.1-3.2-12.3-2.5-18.5c0.9-8,2.2-16,4-23.9
		c3.1-12.9,7.6-25.3,16.4-35.6c1.8-2.1,3.5-3.9,6.7-3.4c12.9,2,25.9,3.9,38.8,5.6c13.6,1.9,27.2,3.8,40.8,5.2
		c17.3,1.9,34.6,3.3,51.8,5.1c12.4,1.3,24.7,2.6,37.2,3.3c23.6,1.4,47.2,2.9,70.8,4.7c18.5,1.4,37.3,1.8,52.8,14.3
		c1.2,1,2.5,1,3.6-0.2c1.2-1.2,1.4-2.8,0.3-4.1c-1.1-1.3-2.4-2.3-3.8-3.2c-9.5-6.7-20.4-9.4-31.6-10.9c-2.5-0.3-5.3-2.6-8-0.3
		c0.5-0.9,0.2-1.2-0.7-1.2c-0.6-0.2-1.2-0.3-1.9-0.5c1.1-2.5,3.3-4.2,5.3-5.8c6.9-5.7,14.3-11,20.8-17.1c7.8-7.2,7.7-9.8,2-18.6
		c0-1.5,0-3,0-4.4c2.5-2.4,5.2-4.6,7.5-7.1c4.5-4.8,4.4-10.4,2.4-16.2c-1.8-5-5.8-6.4-10.7-5.9c-0.5-0.5-0.9-1-1.4-1.5
		c0.3-8.3-1.9-10.3-9.8-10.6c-3.7-0.1-7.3,0.1-11,0.1c-0.1-0.2-0.2-0.5-0.4-0.6c-1-9.4-4.4-11.7-13.6-9.4
		c-9.5,2.4-18.1,7.1-26.8,11.4c-2,1-3.7,2.9-6.3,2.3c0.8-11.1,1.3-22.2,2.4-33.3c2-21.2,4.5-42.4,10-63.1
		c5.5-20.4,13.1-39.9,25.9-57c1.9-2.5,4.1-4.8,6.1-7.2c1.5-1.8,1.7-3.6-0.2-5.2c-1.8-1.5-3.1-0.2-4.2,1c-1.7,1.8-3.4,3.6-5,5.6
		c-11.7,14.5-19.2,31.2-24.9,48.8c-7.5,23.3-11.4,47.3-13.8,71.5c-1.4,14.4-2.9,28.8-3,43.2c-3.9,4-8.4,7.4-12.9,10.8
		c-22.1,16.6-41,36.2-55.2,60c-13-1.3-26.1-2.5-39.1-4c-13.3-1.5-26.6-3.2-39.9-4.9c-27.7-3.6-55.4-7.1-82.9-11.7
		c-8.1-1.4-16.6-2.7-23.5,3.9c-8.9-2.4-17.7-4.9-26.7-7c-8.6-2-17.3-3.6-25.9-5.6c-7.4-1.7-14.7-3.9-22.1-2.6
		c-10,1.7-19.3,5.9-27.4,12.2c-1.3-7.9-2.7-15.9-3.9-23.8c-2.3-15-4.5-30-6.4-45.1c-1.8-15-3.1-29.9-3.5-45c-0.7-25.5-1-51,3.8-76.3
		c0.4-2.2,0.5-4.8-2.4-5.1c-2.7-0.3-3.3,1.8-3.7,4.2c-1.7,9.7-2.6,19.4-3.4,29.2c-1.7,20.9-1.7,42-0.2,62.8
		c1.5,20.4,3.6,40.7,6.8,60.9c2.3,14.4,4,28.9,7,43.2c-1.1,1.5-2.1,2.9-3.2,4.4c-4.2,5.6-8,11.3-9.2,18.4
		c-6.6-2.8-13.3-5.3-20.3-7.4c-15.3-4.5-30.5-7.4-46.5-5.5c-1.8,0.2-4-0.3-3.8,2.5c0.2,2.3,1.9,2.8,4,2.7c9.6-0.4,19.2,0.3,28.7,1.9
		c10.9,1.9,21.7,4.2,31.7,9.1c3.6,1.8,6.8,4,7.5,8.7c-5.8-0.1-11.2,0.3-16.6,1c-15.2,2-29.7,6.3-43.8,12.3c-2.1,0.9-3.9,2.2-2.8,4.9
		c1.2,3,3.3,1.8,5.4,0.9c11.3-5,23.1-8.6,35.3-10.8c14.1-2.5,28.1-3.5,42.1,1.8c15,5.6,30.5,9.8,45.6,15c14,4.9,28.6,8.3,41.8,15.2
		c32,16.7,64.3,32.4,96.7,48.2c13.4,6.5,27,12.7,40.9,19.2c-20.2,5.7-40.1,10.1-60.2,13.9c-17.2,3.2-34.6,5.7-51.8,8.7
		c-15.7,2.8-31.7,4-47.5,6c-12.3,1.6-25,1.1-37.6,1.3c-16.1,0.3-32.3,0.1-48.4,0.1C321.5,859.3,319.8,858.8,318.3,859.8z
		 M547.3,442.8c10.3-0.2,20.4-1,30.3-2.9c19-3.6,36.5-10.5,51.3-23.3c10.4-9,17.3-20.3,21.3-33.4c0.8-2.6,0.6-4.8-2.2-5.6
		c-2.8-0.8-4.2,1.1-4.6,3.7c-0.1,0.8-0.5,1.6-0.7,2.4c-2.9,9.5-7.7,18.2-14.7,24.8c-7.2,6.8-15.7,12.6-25.2,16.5
		c-24.8,10.2-50.6,13.3-77,8.9c-28-4.7-52.3-14.8-61.8-45c-0.6-1.8-1.9-2.1-3.5-2c-1.8,0.1-2.6,1.2-2.7,2.9c0,1.7,0.3,3.2,0.8,4.9
		c4.1,13.4,12.9,23.1,24,30.8C502.1,438.9,524.5,442,547.3,442.8z"/>
	<path class="st0" d="M336.1,959.6c-12.1-9.4-19-21.3-18.1-37.1c0.4-6.9,0.4-13.9,0.2-20.9c-0.3-11.9,0.6-23.7,1-35.5
		c32,0.8,63.9-0.3,95.8-2.8c21.1-1.6,42-4.5,62.9-8c32.6-5.5,65.1-11.9,96.9-20.9c2.9-0.8,5.3-0.6,8,0.5
		c18.8,7.8,38.1,14.2,57.7,19.3c29.4,7.8,59.2,13.9,89.7,15.7c19.1,1.1,38.2,1.3,57-3.4c0.7,18.5,1.8,37,2.3,55.6
		c0.5,16.2-5.2,29-18,38.7c-9.7,5.3-19.8,9.5-30.5,12.3c-18.6,4.9-37.6,7.8-56.6,10.3c-28.9,3.8-57.9,5.7-87,6.6
		c-31.8,1-63.7,1.2-95.5-1c-21.4-1.5-42.9-2.6-64.2-5.3c-17.1-2.1-34.2-4.7-51-8.6C369.5,971.2,352.1,967.8,336.1,959.6z"/>
	<path class="st1" d="M659.3,267.9c-3.9,2.6-8,4.6-12.9,4.3c-2.5-0.2-3.4,0.7-3.7,3.3c-2.2,15.1-7.5,29-16.7,41.3
		c-5.1,5.7-9.9,11.6-15.4,17c-33.4,33.1-90.7,33.6-124.7,1c-3.3-3.2-6.6-6.6-9.9-9.8c-10.8-12.9-18.2-27.5-21.6-44
		c-0.3-1.3-0.6-2.6-0.6-3.9c-0.1-3.9-1.4-6.2-5.8-5.8c-3.6,0.3-6.3-2.7-9.7-3.4c-10.7-16.1-15.6-33.8-14.5-53.1
		c0.4-7.5,3.1-13.8,10-17.7c9.1-0.5,12.4,1.8,15.4,10.6c0.5,1.4,0.3,3.7,2.8,3.4c2-0.3,2.5-2,2.8-3.7c0.5-3.1,0.9-6.3,1.1-9.4
		c1.1-13.7,2.5-27.5,3.3-41.2c0.6-10.3,5.6-13.6,14.3-15.7c31.9-7.7,64.2-10.7,96.9-7.6c20.4,2,40.4,6,59.7,13.3
		c3.1,1.2,4.5,2.7,4.7,6c0.4,6.3,1.1,12.6,1.8,18.8c1.4,11.9,0.8,23.9,2.8,35.8c0.3,1.8,0.5,3.9,2.7,4.3c2.4,0.4,2.9-1.6,3.7-3.3
		c3.9-8.3,10-12.7,19.5-11c8.6,7.7,9.8,17.7,8.6,28.3C672.6,240.9,668.1,255.2,659.3,267.9z M543.4,271.2c-15.1,0-30.2,0-45.4,0
		c-4.8,0-5.7,1.1-4.4,5.7c2.9,9.9,9.1,17.3,17.9,22.4c20.6,12.1,50.2,10.2,69.2-4.3c5.9-4.5,9.9-10.2,12.2-17.2
		c1.7-5.4,0.9-6.6-4.7-6.6C573.3,271.2,558.3,271.2,543.4,271.2z M499.3,169.1c-11.2-0.2-21.3,2.9-29.8,10.5
		c-2.1,1.8-3.6,4.3-2.2,7.1c1.5,2.9,4.1,1.3,6.2,0.6c14.4-4.9,29-5,43.8-2.5c2.7,0.4,5.6,0.9,7-2.1c1.5-3.1-0.4-5.4-2.4-7.5
		c-1.5-1.6-3.4-2.6-5.5-3.4C510.9,169.8,505.1,169,499.3,169.1z M584.7,169.2c-0.8,0-1.7,0-2.5,0c-7.2,0.4-14.3,1.2-20.1,6.2
		c-2.3,2-3.2,4.4-2,7.1c1.2,2.9,3.8,2.5,6.4,2.2c5.1-0.7,10.2-1.2,15.4-1.4c9.9-0.5,19.5,1.6,28.9,4.5c2,0.6,4,1,5.4-1
		c1.5-2.1,0.6-4.2-0.8-5.9c-1-1.3-2.3-2.4-3.6-3.4C603.8,171.3,594.6,169.1,584.7,169.2z M540.3,259c2.3,0,4.7,0.1,7,0
		c4.2-0.3,8.3-1.1,11.6-3.9c1.7-1.4,2.4-3.3,1-5.3c-0.9-1.3-2.5-2-3.9-0.9c-6.2,4.8-13.3,3.4-20.2,3.3c-9.2-0.1-10.5-1.9-8.4-10.9
		c1.9-8.5,5.7-16.3,9.1-24.2c1.8-4.3,3.8-8.5,4.5-13.2c0.3-2-0.4-3.7-2.5-4.3c-2.3-0.7-3.5,0.7-4,2.7c-2.5,9.2-7.4,17.5-10.6,26.4
		c-2.3,6.4-4.4,12.9-4.1,19.9c0.2,5.5,2.4,8.3,7.7,9.6C531.6,259.1,535.9,259.3,540.3,259z M501.3,198.1c-4.9,0-9.2,5.2-9.3,11.1
		c0,5.8,4.3,11.1,9.3,11.1c4.9,0,9.3-5.2,9.3-11.1C510.6,203.4,506.1,198.1,501.3,198.1z M595.9,209.2c-0.1-6.1-4.2-11.1-9.1-11
		c-5.1,0-9.2,5.3-9,11.7c0.1,5.7,4.3,10.5,9.2,10.5C592,220.3,596,215.3,595.9,209.2z"/>
	<path class="st2" d="M433.9,197.1c-6.9,3.9-9.6,10.2-10,17.7c-1.1,19.3,3.8,37,14.5,53.1c-35.4-7.1-69-18.8-98.6-40.1
		c-5.9-4.3-11.4-9.2-16-15c-15.2-19-14.5-39.2,2.2-56.9c11-11.6,24.6-19.6,39-26.3c24.5-11.3,50.2-18.6,76.9-22.6
		c2.3,1,4.6,0.4,6.8,0c16.8-3.3,33.9-5.1,50.9-6.4c27.3-2.1,54.7-1.6,82-0.5c19.6,0.8,39,3.2,58.4,5.8c5.8,0.8,11.5,3.1,17.5,1.4
		c31.5,6.3,61.9,15.6,89.7,32.1c9.5,5.6,18.1,12.2,25.5,20.5c15.1,17.1,15.3,38.1,0.3,55.3c-12.8,14.7-29.2,24.4-46.6,32.5
		c-21.4,9.9-43.8,16.7-67.2,20.3c8.8-12.7,13.3-27,14.9-42.2c1.1-10.6,0-20.6-8.6-28.3c6.4-6.2,7.5-13.7,5.2-22
		c-1.3-4.5-3.6-8.5-6.5-12.2c-9.5-11.9-22-19.6-35.9-24.9c-51.4-19.6-103.4-19.9-155.8-4.3c-14.4,4.3-27.8,10.8-38.5,21.7
		C421.3,168.6,421.4,184.1,433.9,197.1z"/>
	<path class="st2" d="M444.1,101.1c3.9-17.5,10.2-33.9,21.7-48c15-18.3,34.4-29.2,57.5-33.8c22.3-4.4,44.3-3.7,65.9,3
		c34.9,10.7,55.1,35.1,64.4,69.6c0.9,3.2,1.4,6.4,2.1,9.7c-3.3-0.4-6.5-0.8-9.8-1.2c-16-1.9-31.9-3.9-48-5.3
		c-14.2-1.2-28.3-1.9-42.5-2.4c-19.7-0.7-39.5,0.3-59.2,1.9C478.8,95.9,461.4,97.9,444.1,101.1z"/>
	<path class="st3" d="M787.3,866.5c-18.8,4.7-37.9,4.5-57,3.4c-30.5-1.8-60.3-7.9-89.7-15.7c-19.6-5.2-38.9-11.6-57.7-19.3
		c-2.8-1.1-5.2-1.3-8-0.5c-31.9,9-64.3,15.4-96.9,20.9c-20.8,3.5-41.8,6.4-62.9,8c-31.9,2.5-63.8,3.7-95.8,2.8
		c-0.3-2.1-0.7-4.2-1-6.4c1.6-0.9,3.3-0.4,4.9-0.4c16.1,0,32.3,0.2,48.4-0.1c12.5-0.2,25.3,0.3,37.6-1.3c15.8-2,31.7-3.3,47.5-6
		c17.3-3,34.6-5.5,51.8-8.7c20.1-3.8,40.1-8.2,60.2-13.9c-13.9-6.5-27.5-12.6-40.9-19.2c-32.4-15.8-64.8-31.6-96.7-48.2
		c-13.3-6.9-27.8-10.3-41.8-15.2c-15.1-5.3-30.6-9.4-45.6-15c-14-5.3-28-4.3-42.1-1.8c-12.2,2.2-24,5.8-35.3,10.8
		c-2.1,0.9-4.1,2.1-5.4-0.9c-1.1-2.7,0.7-4,2.8-4.9c14.1-6,28.6-10.3,43.8-12.3c5.4-0.7,10.8-1.2,16.6-1c-0.7-4.7-3.9-6.9-7.5-8.7
		c-10-4.9-20.8-7.2-31.7-9.1c-9.5-1.6-19.1-2.3-28.7-1.9c-2.1,0.1-3.8-0.4-4-2.7c-0.2-2.8,2-2.3,3.8-2.5c15.9-1.9,31.2,1,46.5,5.5
		c7,2.1,13.6,4.6,20.3,7.4c3.8,2.4,6.6,5.5,7.9,9.9c0.4,1.4,1.1,2,2.6,2.5c28.6,8.8,57,17.8,85.3,27.7c2.5,0.9,3.5,0.8,3.3-2.3
		c-0.4-6.3-0.4-12.6,0.9-18.8c3.3-16.2,9.2-31.2,20.5-43.6c7-6.6,15.4-5.2,23.5-3.9c27.5,4.6,55.3,8,82.9,11.7
		c13.3,1.7,26.6,3.4,39.9,4.9c13,1.5,26.1,2.7,39.1,4c18.5,1.4,37,2.7,55.6,4.3c3.6,0.3,6.2-0.8,9-3c18.1-14.8,37.5-27.5,59.1-36.4
		c6.8-2.8,13.8-5,21.3-2.4c0,1.5,0,3,0,4.4c-9.2,0.7-17.9,3.4-26.2,7.3c-14.2,6.7-27.5,14.7-40,24.2c-2.6,2-5,4.2-7.9,6.7
		c15.9,2.5,31,2.2,46,3.3c0.6,0.2,1.2,0.3,1.9,0.5c-0.5,0.2-0.7,0.6-0.4,0.9c0.2,0.2,0.7,0.2,1.1,0.3c2.7-2.3,5.5,0,8,0.3
		c11.2,1.5,22.1,4.3,31.6,10.9c1.3,1,2.7,2,3.8,3.2c1.1,1.3,0.9,2.8-0.3,4.1c-1.1,1.1-2.4,1.1-3.6,0.2
		c-15.5-12.5-34.3-12.9-52.8-14.3c-23.6-1.8-47.2-3.3-70.8-4.7c-12.4-0.8-24.8-2.1-37.2-3.3c-17.3-1.8-34.6-3.2-51.8-5.1
		c-13.6-1.5-27.2-3.4-40.8-5.2c-13-1.8-25.9-3.7-38.8-5.6c-3.2-0.5-4.9,1.3-6.7,3.4c-8.8,10.4-13.3,22.7-16.4,35.6
		c-1.9,7.8-3.1,15.9-4,23.9c-0.7,6.3,1.3,12.4,2.5,18.5c0.4,2.3,2.8,2.7,4.5,3.5c25.7,12.6,51.3,25.2,77,37.7
		c27.8,13.5,56.8,24.2,86.4,32.6c15.3,4.4,30.9,8.2,46.8,10.7c10.5,1.6,21,3.4,31.5,4.7c12.7,1.6,25.5,2.5,38.3,1.7
		c10.5-0.6,21-1,31.4-2.9C788.1,862.7,787.4,864.7,787.3,866.5z M484.2,690.1c-7.4-1.1-14.3-1.8-21.1-3.1
		c-8.9-1.7-15.5,0.9-20.4,8.6c-9.6,15.2-14.2,31.9-14.6,49.8c-0.1,5.7,1.7,9.6,7.5,11.6c4,1.4,7.6,4,11.4,5.9
		c5.2,2.6,10.5,5.1,15.9,7.7C459.9,741,466.3,714.3,484.2,690.1z"/>
	<path class="st1" d="M629,359c-0.4,5.1-0.4,10.3-1.8,15.3c-2.8,10-9.4,17.1-17.8,22.6c-19.2,12.5-40.6,16.8-63.1,16.5
		c-14.4-0.2-28.5-2.3-41.6-8.5c-15.5-7.2-26.7-17.9-28.9-35.9c0.1-11.1,0.1-22.1,0.2-33.2c0.6,0.6,1.3,1,1.8,1.7
		c23.4,28.4,53.5,37.3,88.8,29.6c22.3-4.8,39.9-17.3,54.3-34.8c1.6-2,2.7-4.7,5.7-5.3C627.4,337.7,628.2,348.3,629,359z"/>
	<path class="st3" d="M336.1,959.6c15.9,8.2,33.3,11.6,50.6,15.6c16.8,3.9,33.9,6.5,51,8.6c21.3,2.7,42.8,3.8,64.2,5.3
		c31.8,2.2,63.7,2,95.5,1c29.1-0.9,58.1-2.8,87-6.6c19.1-2.5,38-5.4,56.6-10.3c10.7-2.8,20.9-6.9,30.5-12.3c1.1,2.4,1,4.8,0.5,7.3
		c-20.9,11.1-43.8,15.4-66.9,19.1c-22.8,3.7-45.8,5.6-68.7,7.9c-5.9,0.6-11.9,0.7-17.9,1c-26.6,1.4-53.2,1.2-79.8,1.1
		c-21.1-0.1-42.2-1.4-63.2-3.1c-38.2-3.1-76.2-8.2-113.5-17.8c-9.3-2.4-18.5-5.2-27-9.7C335.6,964.2,335.8,961.9,336.1,959.6z"/>
	<path class="st3" d="M626.5,327c-3,0.5-4.1,3.3-5.7,5.3c-14.3,17.5-32,30-54.3,34.8c-35.4,7.7-65.4-1.2-88.8-29.6
		c-0.5-0.6-1.2-1.1-1.8-1.7c0-3.6,0.1-7.2,0.1-10.8c3.3,3.3,6.5,6.6,9.9,9.8c34,32.6,91.2,32.1,124.7-1c5.4-5.4,10.3-11.3,15.4-17
		C626.8,320.2,626.8,323.6,626.5,327z"/>
	<path class="st3" d="M444.1,101.1c17.3-3.2,34.7-5.1,52.2-6.5c19.7-1.6,39.4-2.7,59.2-1.9c14.2,0.5,28.3,1.2,42.5,2.4
		c16.1,1.4,32,3.4,48,5.3c3.3,0.4,6.5,0.8,9.8,1.2c1.9,1.5,1.8,3.7,1.8,5.8c-6,1.7-11.7-0.6-17.5-1.4c-19.4-2.7-38.8-5-58.4-5.8
		c-27.3-1.1-54.7-1.6-82,0.5c-17,1.3-34.1,3.1-50.9,6.4c-2.2,0.4-4.5,1-6.8,0C442.2,104.8,441.7,102.4,444.1,101.1z"/>
	<path class="st1" d="M773.6,663.7c-7.5-2.6-14.5-0.4-21.3,2.4c-21.7,8.9-41.1,21.6-59.1,36.4c-2.8,2.3-5.4,3.3-9,3
		c-18.5-1.5-37-2.9-55.6-4.3c14.2-23.8,33.1-43.4,55.2-60c4.5-3.4,9-6.8,12.9-10.8c2.2-1.4,4.4-2.8,6.6-4.3c2.6,0.6,4.3-1.3,6.3-2.3
		c8.7-4.3,17.3-9,26.8-11.4c9.2-2.4,12.6,0,13.6,9.4c-1.5-1.6-3.2-1.4-5-0.7c-15.8,5.4-31.2,11.5-45.1,20.9
		c-5.4,3.7-10.1,8.2-14.4,13.1c-1.2,1.3-1.9,2.9-0.6,4.5c1.4,1.6,3,0.9,4.5-0.1c1.1-0.8,2.1-1.7,3-2.6c5.1-5.1,10.8-9.4,16.9-13.1
		c10.5-6.5,22-11,33.4-15.7c3-1.2,6.6-1.7,7.8-5.6c3.7,0,7.3-0.2,11-0.1c7.9,0.3,10,2.3,9.8,10.6c-2.6-0.4-4.9,0.5-7.2,1.4
		c-19.6,7.9-38.8,16.7-57,27.5c-7.4,4.4-14.8,9-21.6,14.4c-1.5,1.2-2.7,2.8-1.4,4.7c1.4,2.1,3.1,1.1,4.7,0c4-2.7,7.9-5.5,11.9-8.2
		c20.6-13.4,42.7-23.8,65.4-32.8c2.8-1.1,5.8-2,6.5-5.5c4.9-0.5,9,0.9,10.7,5.9c2,5.7,2.1,11.4-2.4,16.2
		C778.7,659.2,776.1,661.4,773.6,663.7z"/>
	<path class="st1" d="M443.2,684.6c-11.3,12.5-17.2,27.4-20.5,43.6c-1.2,6.2-1.2,12.5-0.9,18.8c0.2,3.1-0.8,3.2-3.3,2.3
		c-28.2-9.8-56.7-18.9-85.3-27.7c-1.5-0.5-2.1-1.1-2.6-2.5c-1.3-4.3-4.2-7.5-7.9-9.9c1.2-7.1,5.1-12.8,9.2-18.4
		c1.1-1.4,2.1-2.9,3.2-4.4c2-1.7,3.9-3.3,5.9-5c8.2-6.3,17.4-10.4,27.4-12.2c7.4-1.3,14.7,1,22.1,2.6c8.6,1.9,17.3,3.6,25.9,5.6
		C425.4,679.7,434.3,682.3,443.2,684.6z"/>
	<path class="st3" d="M547.3,442.8c-22.8-0.8-45.2-3.9-64.7-17.3c-11.2-7.7-20-17.4-24-30.8c-0.5-1.6-0.8-3.2-0.8-4.9
		c0-1.8,0.8-2.8,2.7-2.9c1.6-0.1,2.9,0.1,3.5,2c9.5,30.2,33.8,40.3,61.8,45c26.5,4.4,52.2,1.3,77-8.9c9.5-3.9,18-9.7,25.2-16.5
		c7-6.6,11.8-15.4,14.7-24.8c0.2-0.8,0.6-1.6,0.7-2.4c0.4-2.7,1.8-4.5,4.6-3.7c2.8,0.8,3,3,2.2,5.6c-4,13.2-10.9,24.4-21.3,33.4
		c-14.8,12.8-32.3,19.7-51.3,23.3C567.7,441.8,557.6,442.6,547.3,442.8z"/>
	<path class="st1" d="M745.4,709.6c-15-1.2-30.1-0.8-46-3.3c3-2.5,5.3-4.7,7.9-6.7c12.5-9.5,25.8-17.5,40-24.2
		c8.4-3.9,17-6.6,26.2-7.3c5.7,8.8,5.7,11.3-2,18.6c-6.6,6.1-13.9,11.3-20.8,17.1C748.6,705.5,746.5,707.1,745.4,709.6z"/>
	<path class="st3" d="M341,681.6c-2,1.7-3.9,3.3-5.9,5c-3.1-14.3-4.8-28.8-7-43.2c-3.2-20.2-5.4-40.6-6.8-60.9
		c-1.5-20.9-1.5-41.9,0.2-62.8c0.8-9.8,1.7-19.5,3.4-29.2c0.4-2.4,1-4.5,3.7-4.2c2.9,0.4,2.8,2.9,2.4,5.1
		c-4.8,25.3-4.5,50.8-3.8,76.3c0.4,15,1.7,30,3.5,45c1.8,15.1,4.1,30.1,6.4,45.1C338.3,665.7,339.7,673.6,341,681.6z"/>
	<path class="st3" d="M703.4,626.3c-2.2,1.4-4.4,2.8-6.6,4.3c0.1-14.5,1.5-28.9,3-43.2c2.4-24.2,6.3-48.2,13.8-71.5
		c5.6-17.6,13.2-34.2,24.9-48.8c1.6-1.9,3.3-3.8,5-5.6c1.1-1.2,2.4-2.6,4.2-1c1.9,1.6,1.7,3.5,0.2,5.2c-2,2.4-4.2,4.7-6.1,7.2
		c-12.8,17.1-20.4,36.5-25.9,57c-5.5,20.7-8,41.9-10,63.1C704.7,604.1,704.2,615.2,703.4,626.3z"/>
	<path class="st3" d="M772.7,634.6c-0.7,3.5-3.7,4.4-6.5,5.5c-22.8,9-44.9,19.4-65.4,32.8c-4,2.6-8,5.4-11.9,8.2
		c-1.6,1.1-3.3,2.2-4.7,0c-1.3-1.9-0.1-3.5,1.4-4.7c6.8-5.4,14.2-9.9,21.6-14.4c18.2-10.9,37.4-19.6,57-27.5
		c2.3-0.9,4.7-1.8,7.2-1.4C771.8,633.6,772.3,634.1,772.7,634.6z"/>
	<path class="st3" d="M750.6,622.6c-1.2,3.8-4.8,4.4-7.8,5.6c-11.4,4.6-22.9,9.2-33.4,15.7c-6.1,3.8-11.8,8-16.9,13.1
		c-0.9,0.9-1.9,1.8-3,2.6c-1.4,1-3.1,1.7-4.5,0.1c-1.3-1.6-0.6-3.1,0.6-4.5c4.3-4.9,9-9.4,14.4-13.1c13.9-9.5,29.3-15.6,45.1-20.9
		c1.8-0.6,3.6-0.9,5,0.7C750.4,622.2,750.5,622.4,750.6,622.6z"/>
	<path class="st4" d="M748,711.3c-0.4-0.1-0.9,0-1.1-0.3c-0.4-0.4-0.1-0.8,0.4-0.9C748.2,710,748.5,710.4,748,711.3z"/>
	<path class="st3" d="M433.9,197.1c-12.5-13-12.5-28.5,0.1-41.4c10.7-10.9,24.1-17.4,38.5-21.7c52.4-15.6,104.4-15.3,155.8,4.3
		c13.9,5.3,26.5,13,35.9,24.9c2.9,3.7,5.2,7.6,6.5,12.2c2.3,8.3,1.2,15.8-5.2,22c-9.5-1.7-15.6,2.7-19.5,11
		c-0.8,1.7-1.3,3.7-3.7,3.3c-2.2-0.4-2.4-2.4-2.7-4.3c-2.1-11.8-1.4-23.9-2.8-35.8c-0.8-6.3-1.5-12.5-1.8-18.8
		c-0.2-3.4-1.6-4.9-4.7-6c-19.3-7.3-39.2-11.3-59.7-13.3c-32.7-3.1-65-0.2-96.9,7.6c-8.7,2.1-13.7,5.4-14.3,15.7
		c-0.8,13.7-2.2,27.5-3.3,41.2c-0.2,3.1-0.7,6.3-1.1,9.4c-0.3,1.7-0.8,3.4-2.8,3.7c-2.5,0.3-2.3-1.9-2.8-3.4
		C446.3,198.9,443,196.6,433.9,197.1z"/>
	<path class="st3" d="M543.4,271.2c15,0,29.9,0,44.9,0c5.6,0,6.4,1.2,4.7,6.6c-2.2,7-6.3,12.7-12.2,17.2
		c-19,14.5-48.7,16.4-69.2,4.3c-8.8-5.2-15-12.5-17.9-22.4c-1.3-4.6-0.5-5.7,4.4-5.7C513.1,271.2,528.3,271.2,543.4,271.2z
		 M584.1,277.2c-26.5,0-52.5,0.1-78.4-0.1c-3.7,0-3.5,1.7-2.2,3.8c3.1,5,7,9.2,12.2,12c16.5,9,33.5,9.4,50.5,2
		C574.1,291.5,580.7,286.4,584.1,277.2z"/>
	<path class="st3" d="M499.3,169.1c5.9-0.1,11.6,0.7,17.1,2.7c2,0.7,4,1.8,5.5,3.4c2,2.1,3.9,4.5,2.4,7.5c-1.5,3-4.4,2.6-7,2.1
		c-14.8-2.4-29.4-2.3-43.8,2.5c-2.1,0.7-4.7,2.2-6.2-0.6c-1.5-2.8,0.1-5.2,2.2-7.1C477.9,172,488,168.9,499.3,169.1z"/>
	<path class="st3" d="M584.7,169.2c9.9,0,19.1,2.2,27.1,8.2c1.3,1,2.5,2.2,3.6,3.4c1.4,1.8,2.3,3.8,0.8,5.9c-1.4,2-3.5,1.6-5.4,1
		c-9.4-2.9-19-5-28.9-4.5c-5.1,0.2-10.3,0.8-15.4,1.4c-2.6,0.3-5.2,0.7-6.4-2.2c-1.1-2.7-0.2-5.2,2-7.1c5.8-5,12.9-5.8,20.1-6.2
		C583,169.1,583.8,169.2,584.7,169.2z"/>
	<path class="st3" d="M540.3,259c-4.3,0.3-8.7,0.1-12.9-0.9c-5.2-1.3-7.4-4.2-7.7-9.6c-0.3-7,1.8-13.5,4.1-19.9
		c3.2-8.9,8.1-17.1,10.6-26.4c0.5-2,1.7-3.4,4-2.7c2.1,0.6,2.8,2.3,2.5,4.3c-0.6,4.7-2.7,8.9-4.5,13.2c-3.4,7.9-7.2,15.8-9.1,24.2
		c-2.1,9.1-0.8,10.9,8.4,10.9c6.9,0,14.1,1.4,20.2-3.3c1.4-1.1,3-0.4,3.9,0.9c1.4,2,0.7,3.9-1,5.3c-3.3,2.9-7.4,3.6-11.6,3.9
		C544.9,259.1,542.6,259,540.3,259z"/>
	<path class="st3" d="M501.3,198.1c4.8,0,9.2,5.3,9.2,11.1c0,5.9-4.4,11.1-9.3,11.1c-4.9,0-9.3-5.3-9.3-11.1
		C492.1,203.3,496.4,198.1,501.3,198.1z"/>
	<path class="st3" d="M595.9,209.2c0.1,6.1-3.9,11.1-9,11.1c-4.8,0-9-4.8-9.2-10.5c-0.2-6.4,3.9-11.6,9-11.7
		C591.8,198.1,595.9,203.1,595.9,209.2z"/>
	<path class="st0" d="M484.2,690.1c-18,24.3-24.4,50.9-21.3,80.6c-5.4-2.6-10.7-5.1-15.9-7.7c-3.8-1.9-7.4-4.5-11.4-5.9
		c-5.8-2-7.6-5.9-7.5-11.6c0.5-17.9,5-34.6,14.6-49.8c4.9-7.7,11.5-10.3,20.4-8.6C470,688.3,476.8,689,484.2,690.1z"/>
	<path class="st0" d="M584.1,277.2c-3.4,9.2-10,14.3-17.8,17.7c-17.1,7.5-34.1,7-50.5-2c-5.1-2.8-9.1-7-12.2-12
		c-1.3-2.2-1.5-3.8,2.2-3.8C531.6,277.3,557.5,277.2,584.1,277.2z"/>
	<g>
		<path class="st5" d="M775.6,565.2c2.1,1.1,10.9,2.2,24.6,4.8c18.3,3.9,37.2,8,54,16.8c0.6,0.4,1,0.8,1.3,1.1
			c0.5,0.5,0.3,1.9,0.3,3.1c0,1.7-0.2,1.5-0.5,1.2c-17.1-12.5-45.1-15.4-66.9-19.4c-7.1-1.2-11.8-2-13-2.9c-0.4-0.3-0.3-1-0.3-3.1
			C774.9,565,774.7,564.8,775.6,565.2z"/>
		<path class="st5" d="M854.5,581c-18-10.4-40.4-14.3-60.4-18.6c-9.6-2-16.5-2.7-18.6-3.6c-0.7-0.3-0.6-1.1-0.6-3.3
			c0-2.4,0.3-1.8,0.9-1.6c19.3,5.4,39.2,8.2,58.5,14.1c10,3.3,17.6,7.4,20.2,8.5c0.7,0.3,0.9,0.4,0.9,3
			C855.5,582.4,855.3,581.5,854.5,581z"/>
		<path class="st5" d="M824.2,539.6c-0.1-1.7-0.2-3.4-0.3-5.1c10.1,3.8,21.4,7.3,30.6,13.3c0.7,0.6,0.6,1.1,0.7,3.6
			c0,2.4-0.3,1.3-0.8,0.9C845.2,546.6,834.2,543.2,824.2,539.6z"/>
		<path class="st5" d="M824.2,549.6c0-1.5,0-3-0.1-4.5c9.9,3.4,22,6.5,30.9,12.7c0.3,0.4,0.2,1.5,0.2,2.8c0,2.1,0,1.9-0.4,1.5
			C845.8,556.2,834.3,553,824.2,549.6z"/>
		<path class="st5" d="M823.8,558.4c0.3-1.4,0.5-2.9,0.8-4.3c10.1,3.5,21.3,6.8,30.4,12.7c0.7,0.6,0.4,1.4,0.4,3.3
			c0,2.4-0.2,1.3-0.6,0.9C845.6,565,834,561.9,823.8,558.4z"/>
		<path class="st6" d="M823.8,558.4c-8.7-0.6-18.3-4.2-26.6-5.6c-10.6-1.8-18.5-3.4-21.3-4.4c-1.1-0.4-0.9-1.6-0.9-4.1
			c0-6.3,0.1-12.5,0.1-18.8c0-3.2-0.4-4.7,2-3.9c14.6,5.1,31.3,7.8,46.8,12.7c0.1,1.7,0.2,3.4,0.3,5.1c0,1.8,0,3.7,0,5.5
			c0,1.5,0,3,0.1,4.5c-0.2,1.5-0.6,2.9,0.3,4.6C824.3,555.6,824,557,823.8,558.4z"/>
	</g>
</g>
<g id="Layer_1_1_">
	<polygon class="st0" points="489.6,599.5 336,599.5 346,498.6 499.7,498.6 	"/>
	<path class="st7" d="M418.2,509.3c0,0-4.2-2.8-6.2-3.4l0.2,0.1c-2.2-1.2-4.8-2-7.2-2.5c-12.4-2.9-24.4-1.1-35.5,6
		c-17.7,11.3-25.8,30.6-21.5,50.1c1.5,6.6,4.4,12.5,8.9,17.5c1.7,2.1,3.4,4.1,5.6,5.6c0.5,0.6,0.9,1.4,2,1.2
		c-0.7-0.6-0.7-1.6-1.6-1.9l0,0l0,0c-1.1-1.5-2.2-3-3.4-4.5l0,0c-0.1-0.5-0.8-0.5-0.8-1.1c-0.4-1.4-1.1-2.6-1.9-3.8l0,0
		c0-0.2,0-0.4-0.1-0.5c-6.2-15.4-4.7-30.4,5.5-44.4c10.9-15,25.9-21.4,43.8-19.8c3.6,0.3,5.3,1.1,8.7,2.1c2.4,1,5.7,2.3,7.7,3.2
		C421.3,511.3,420.2,510.7,418.2,509.3L418.2,509.3z"/>
	<text transform="matrix(0.9863 5.164198e-04 -0.2568 0.9665 391.0579 568.4423)" class="st8 st9 st10">Pools &amp; Patios</text>
	<path class="st11" d="M442.7,560c-2,0-3.9-0.1-5.9,0c-1.1,0-1.2-0.4-1-1.3c1.2-5,2.4-10,3.4-15c0.4-1.8,1.1-2.4,2.8-2.1
		c0.3,0,0.6,0,0.9-0.1c1,0,2,0,3,0c1.4,0,2.8,0,4.2,0.1c0.6,0,1.6-0.2,1.3,0.9c-0.2,0.9,0.1,2.1-1.5,2.1c-1.8,0-3.7,0.1-5.5,0
		c-1.4-0.1-1.8,0.5-2.1,1.7c-0.6,2.7-0.6,2.7,2.2,2.7c0.8,0,1.6-0.1,2.4,0c0.6,0.1,1.9-0.5,1.7,0.9c-0.2,1-0.2,2.3-1.9,2.1
		c-0.9-0.1-1.8-0.1-2.8,0c-1.2,0.1-2.8-0.8-3.2,1.6c-0.6,3.4-0.8,3.4,2.7,3.4c1,0,2,0,3,0c0.7,0.1,1.9-0.6,1.7,1
		c-0.2,1.2-0.4,2.2-2,1.9c-0.6-0.1-1.2,0-1.8,0.1C443.7,560.3,443.2,560.3,442.7,560L442.7,560z"/>
	<path class="st12" d="M398.9,548.7c-0.8,3.3-1.6,6.6-2.4,9.9c-0.1,0.5-0.1,1.2-0.8,1.3c-1,0-1.9,0-2.9-0.1c0,0,0-0.5,0-0.8
		c0.2-0.9,0.3-1.8,0.5-2.7c1-4.1,2-8.2,2.9-12.3c0.6-2.4,1.9-3,4.1-1.7c-0.6,1.9-1.1,3.9-1.3,5.9
		C399.2,548.3,399.1,548.5,398.9,548.7L398.9,548.7z"/>
	<path class="st13" d="M414.3,592.2c-8.5,1-16.4-0.7-23.7-4.5c-17.1-8.9-25.1-29.8-18.6-48.8c4-11.8,11.8-20.4,22.7-26.4
		c0.9-0.4,1.9-0.7,2.7-1.3c-1.1,0.4-1.7,0.3-3.1,0.8c-0.1,0-0.2,0.1-0.3,0.1c-16.3,5.3-26.9,16.4-30.8,32.9
		c-3.9,17,1.1,31.2,14.4,41.5c11.3,8.7,24.4,10.3,38.5,5.8C415.5,592.2,414.9,592.1,414.3,592.2L414.3,592.2z"/>
	<path class="st7" d="M446.9,572.4c-1.6,1-3.1,2-4.7,3l0,0c-2.6,1.2-5.2,2.5-7.9,3.5c-11.8,4-23.4,4-34.7-0.2
		c-7-2.6-12.8-6.9-18-12.1c-1-1.4-2.1-2.8-3.1-4.2c0.4,1.9,1.2,3.5,2.3,5l0,0l0,0c0.2,0.8,0.7,1.4,1.3,2l0,0
		c2.6,4.2,6.2,7.5,10.3,10.2c10.2,6.7,21.6,8.4,33.9,5.4c6.2-1.5,12-4.4,17-8.6c1.5-0.9,2.8-2.1,3.9-3.4
		C447.1,572.7,447,572.5,446.9,572.4L446.9,572.4z"/>
	<path class="st14" d="M467.9,559.2c-1,1.4-2.4,0.8-3.5,0.6c-0.7-0.1-0.2-1.3,0-2c1.1-5.1,2.4-10.1,3.5-15.2
		c0.2-0.9,0.6-1.4,1.5-1.1c0.8,0.2,2.3-0.9,2.3,1c-0.5,2.2-0.5,4.5-1.2,6.7c-0.2,0.6-0.2,1.4-0.8,1.8l0,0c-0.5,2.4-0.5,4.9-1.4,7.2
		C468.3,558.5,468.2,558.9,467.9,559.2L467.9,559.2z"/>
	<path class="st15" d="M461.4,551.6c1-0.5,1.8-1.2,2.4-2.2c2.2-3.6,0.9-6.6-3.5-8c-0.8,0-1.7-0.1-2.5-0.1c-1.3,0-2.6,0.1-3.9,0.1
		c-0.9,0-1.2,0.2-1.4,1.2c-0.9,4-1.9,8.1-2.9,12.1c-0.1,0.1-0.1,0.2,0,0.4c0.1,0.8-0.3,1.6-0.5,2.4c-0.5,2.6-0.4,2.7,2.3,2.5
		c0.7-0.1,0.9-0.3,1.1-1c0.2-1.2,0.6-2.4,0.9-3.6c0.2-0.9,0-2,1.5-2.1c1.4-0.1,2.3,0.3,2.5,1.8c0.1,0.8,0.5,1.6,0.6,2.5
		c0.2,2.1,1.3,2.6,3.3,2.5c1.4-0.1,1.3-0.5,1-1.5c-0.6-1.7-0.9-3.4-1.5-5C460.4,552.5,460.5,552.1,461.4,551.6L461.4,551.6z
		 M456.6,550.1c-0.8,0-2,0.5-1.9-1.1c0.2-3.6,0.8-4.5,2.9-4.5c2.2-0.1,3.4,0.7,3.4,2.1C460.9,548.8,459.3,550.1,456.6,550.1
		L456.6,550.1z"/>
	<path class="st16" d="M486.4,546.3c-0.5-3.4-2.6-5-6-4.9c-3.9,0.1-6.3,2.3-8.1,5.6c-0.7,0.5-0.8,1.2-1.1,1.9
		c-0.7,1.8-0.2,3.6-0.1,5.4c0.3,2.7,1.5,4.8,4.2,5.5c2.8,0.7,5.5,0.1,7.7-2.2C486.1,554.3,487.1,550.5,486.4,546.3L486.4,546.3z
		 M482.9,549.3c-0.2,1.8-0.6,4.1-2.1,6c-1.1,1.5-2.6,1.9-4.3,1.5c-1.5-0.4-1.7-1.8-1.7-3.2c0-2,0.2-3.9,1.1-5.8c0.5-1.1,1-2,2-2.7
		c1.1-0.8,2.3-1.1,3.5-0.6c1.3,0.5,1.6,1.7,1.6,3C483,548,482.9,548.4,482.9,549.3L482.9,549.3z"/>
	<path class="st17" d="M431.3,541.5c-0.9,0-1.7,0-2.6,0c-0.8,0-1.6,0.1-2.4,0c-1.3-0.2-1.8,0.3-2,1.6c-1,5-2.3,9.9-3.4,14.9
		c-0.2,0.7-1,1.8,0.3,1.9c1,0,2.8,1.2,3.2-1.2c0.2-1.2,0.6-2.4,0.8-3.6c0.2-1.2,0.6-1.8,1.9-1.7c1.2,0.1,2.5,0,3.7-0.1
		c3.5-0.3,6-3,6.1-6.5C437,543.6,434.8,541.6,431.3,541.5L431.3,541.5z M430.4,550.2c-0.6,0.1-1.2,0.1-1.4,0.1
		c-1.8,0-2.5-0.7-2.2-2.2c0.1-0.3,0.2-0.6,0.3-0.9c0.6-2.8,0.6-2.7,3.4-2.6c1.5,0.1,2.7,0.3,2.7,2.2
		C433.1,548.6,432.1,549.9,430.4,550.2L430.4,550.2z"/>
	<path class="st7" d="M422.2,541.5c-1.3-0.1-2.7-0.1-4,0c-0.8,0.1-1,1-1.4,1.7c-2.2,3.7-4.3,7.5-6.7,11.6c-0.4-4.1-0.8-7.8-1.2-11.5
		c0.1-1.4-0.5-1.9-1.9-1.8c-3.1,0.1-3.1,0-3.8,3.2c-0.1,0.4-0.3,0.8-0.4,1.2c-0.5,3.9-1.7,7.7-2.5,11.6c-0.5,2.6-0.6,2.5,2,2.5
		c0.9,0,1.3-0.3,1.5-1.2c0.2-1.3,0.6-2.7,0.9-4c0.5-2.6,1-5.2,1.6-7.8c0.7,3.8,1.1,7.5,1.6,11.3c0.1,0.6-0.2,1.6,0.9,1.7
		c1,0.1,1.8,0.1,2.5-1.1c1.6-2.9,3.3-5.8,5-8.6c0.4-0.8,0.8-1.5,1.2-2.3c0,0,0,0,0,0l0.2-0.3c0,0.4,0,0.8,0,1.2l-0.9,3.3
		c0,0,0,0.1-0.1,0.1l0,0c-0.5,2-1,4.1-1.4,6.1c-0.1,0.6-0.6,1.6,0.5,1.5c1-0.1,2.6,1,3.1-0.9c1.3-5.4,2.5-10.9,3.8-16.3
		C422.5,542.2,422.8,541.6,422.2,541.5L422.2,541.5z"/>
</g>
</svg>
