<?xml version="1.0" encoding="utf-8"?>
<!-- Generator: Adobe Illustrator 24.3.0, SVG Export Plug-In . SVG Version: 6.00 Build 0)  -->
<svg version="1.1" id="Capa_1" xmlns="http://www.w3.org/2000/svg" xmlns:xlink="http://www.w3.org/1999/xlink" x="0px" y="0px"
	 viewBox="0 0 720 720" style="enable-background:new 0 0 720 720;" xml:space="preserve">
<style type="text/css">
	.st0{fill:#005CB9;}
	.st1{fill:#3CB4E5;}
	.st2{fill:#1C355E;}
</style>
<g>
	<g>
		<g>
			<g>
				<path class="st0" d="M81.7,216.9c0-45.5,0-91,0-136.5c-4.6,4.6-9.1,9.1-13.7,13.7c136.6,0,245,0,381.6,0c19.1,0,38.3,0,57.4,0
					c-4.6-4.6-9.1-9.1-13.7-13.7c0,119.5,0,239.1,0,358.6c0,16.9,0,33.9,0,50.8c0,17.6,27.3,17.6,27.3,0c0-119.5,0-239.1,0-358.6
					c0-16.9,0-33.9,0-50.8c0-7.4-6.3-13.7-13.7-13.7c-136.6,0-245,0-381.6,0c-19.1,0-38.3,0-57.4,0c-7.4,0-13.7,6.3-13.7,13.7
					c0,45.5,0,91,0,136.5C54.4,234.5,81.7,234.5,81.7,216.9L81.7,216.9z"/>
			</g>
		</g>
	</g>
	<g>
		<g>
			<g>
				<g>
					<path class="st1" d="M203.4,610.7c27.8,21.8,66,25.7,98.9,13.9c17.3-6.2,27.5-18.2,42.5-27.6c21.7-13.7,47,17,61.9,29.7
						c29.8,25.6,66.1,30.6,104.1,24.1c44-7.5,84.1-30.4,129.1-32.4c15.7-0.7,23.1-20,3.2-19.1c-41.2,1.8-77.8,19.6-117.2,29.6
						c-20.4,5.2-42.4,8-62.9,2c-20.3-5.8-34-21.2-49.5-34.4c-25.8-22.1-60.3-31.6-89.3-9.4c-14.9,11.4-26,22.5-45.6,24.5
						c-19.3,1.9-37.3-4.8-52.3-16.5C217.1,588,191,600.9,203.4,610.7L203.4,610.7z"/>
				</g>
			</g>
		</g>
		<g>
			<g>
				<g>
					<path class="st1" d="M149.2,499.2c27.3,20.5,61.4,27.9,95.1,23.5c16.9-2.2,33.6-7.2,48.7-15c17.2-8.9,30.4-24.4,47.7-32.8
						c40.4-19.7,88.6,38.1,122.5,53.1c29.9,13.3,67.2,11.5,93.6-8.8c12-9.2-16.9-6.2-22.5-1.9c-29.6,22.8-73.4-17.6-96.8-33.7
						c-25.9-17.7-54.9-30-86.7-23.7c-31.6,6.2-49.9,30.9-77.7,44c-31.6,14.9-69.8,5.1-96.6-15C169.7,483.8,143.9,495.2,149.2,499.2
						L149.2,499.2z"/>
				</g>
			</g>
		</g>
		<g>
			<g>
				<g>
					<path class="st1" d="M70.9,560.5c18.2-14.6,41.7-21.1,64.8-18.3c24.2,3,41.9,18.4,63.9,27c36.8,14.4,87.8,7.4,118-17.8
						c12.7-10.5,28.7-34.6,47.3-27.4c18.6,7.2,31.5,28.1,48.5,38.6c36.4,22.5,89.5,28.8,130.8,19.1c27.5-6.4,43.4-25.6,66.6-39.7
						c25.2-15.4,56.4-14.7,82.7-2.5c9.3,4.4,35.7-8.9,22.9-14.9c-43-20.1-94.8-14.8-133,13.6c-11.1,8.3-21.1,19.1-34.1,24.5
						c-13.5,5.6-29.2,5.2-43.5,4.3c-27.2-1.6-55.1-7.9-77.1-24.6c-17.1-12.9-30-32.1-52-37.2c-18.9-4.4-38,2.8-53,14
						c-18.7,13.9-31.4,33.9-56.1,37c-13.7,1.7-29.5,2.5-42.9-1.4c-12.5-3.6-23.2-11.7-34.7-17.6c-46.4-23.9-102.9-15-142.9,17.2
						c-5.3,4.3-2.2,9.6,3.1,11.4C57.2,568.4,65.7,564.7,70.9,560.5L70.9,560.5z"/>
				</g>
			</g>
		</g>
	</g>
	<g>
		<g>
			<g>
				<g>
					<line class="st2" x1="123.4" y1="270.6" x2="168.7" y2="254.7"/>
					<path class="st2" d="M123.4,276.1c-2.3,0-4.4-1.4-5.2-3.7c-1-2.9,0.5-6,3.4-7l45.2-15.9c2.9-1,6,0.5,7,3.4c1,2.9-0.5,6-3.4,7
						l-45.2,15.9C124.6,276,124,276.1,123.4,276.1z"/>
				</g>
				<g>
					<line class="st2" x1="142.7" y1="332.2" x2="187.9" y2="316.2"/>
					<path class="st2" d="M142.7,337.7c-2.3,0-4.4-1.4-5.2-3.7c-1-2.9,0.5-6,3.4-7l45.2-15.9c2.9-1,6,0.5,7,3.4c1,2.9-0.5,6-3.4,7
						l-45.2,15.9C143.9,337.6,143.3,337.7,142.7,337.7z"/>
				</g>
				<g>
					<line class="st2" x1="144.7" y1="398.4" x2="189.9" y2="382.4"/>
					<path class="st2" d="M144.7,403.9c-2.3,0-4.4-1.4-5.2-3.7c-1-2.9,0.5-6,3.4-7l45.2-15.9c2.9-1,6,0.5,7,3.4c1,2.9-0.5,6-3.4,7
						l-45.2,15.9C145.9,403.8,145.3,403.9,144.7,403.9z"/>
				</g>
				<g>
					<line class="st2" x1="144.7" y1="465.2" x2="189.9" y2="449.2"/>
					<path class="st2" d="M144.7,470.7c-2.3,0-4.4-1.4-5.2-3.7c-1-2.9,0.5-6,3.4-7l45.2-15.9c2.9-1,6,0.5,7,3.4c1,2.9-0.5,6-3.4,7
						l-45.2,15.9C145.9,470.6,145.3,470.7,144.7,470.7z"/>
				</g>
			</g>
		</g>
		<g>
			<path class="st2" d="M47.3,294.9c3.8,0.7,7.7,1.6,11.3,3.1c19.5,8.1,22.7,29.3,22.6,49.4c-0.2,48.3,0,96.6,0,144.9
				c0,10.5,0,20.9,0,31.4c12.1-4.7,24.8-7.7,37.6-9.1c0-37.3,0-74.7,0-112c0-46.6,9.8-110.4-39.5-136.2
				c-19.6-10.3-39.8-9.5-61.1-9.5c-24.2,0-24.3,37.6,0,37.6c8.2,0,16.3-0.1,24.5,0C43.9,294.6,47.2,295,47.3,294.9z"/>
		</g>
		<path class="st2" d="M117.4,231.6c14.6,0,26.8-1.5,39.2,7.8c18.4,13.8,24.6,39.5,24.6,61.3c0,48.2,0,96.4,0,144.6
			c0,11.6,0,23.2,0,34.7c0.5,0.3,0.9,0.5,1.4,0.8c4.2,3.1,8.6,5.9,13.1,8.4c0-42.9,0-85.9,0-128.8c0-42.4,8.7-100.8-28.6-131.2
			c-15.4-12.6-30.9-12.1-49.7-12.1C108,217.1,108,231.6,117.4,231.6z"/>
	</g>
</g>
</svg>
